<?xml version="1.0" encoding="UTF-8" standalone="no"?>
<!-- Created with Inkscape (http://www.inkscape.org/) -->

<svg
   width="52.80135mm"
   height="72.859856mm"
   viewBox="0 0 52.80135 72.859856"
   version="1.1"
   id="svg1"
   inkscape:version="1.4.2 (ebf0e940d0, 2025-05-08)"
   inkscape:export-filename="bitmap.png"
   inkscape:export-xdpi="96"
   inkscape:export-ydpi="96"
   sodipodi:docname="coveringspace.svg"
   xmlns:inkscape="http://www.inkscape.org/namespaces/inkscape"
   xmlns:sodipodi="http://sodipodi.sourceforge.net/DTD/sodipodi-0.dtd"
   xmlns="http://www.w3.org/2000/svg"
   xmlns:svg="http://www.w3.org/2000/svg">
  <sodipodi:namedview
     id="namedview1"
     pagecolor="#ffffff"
     bordercolor="#000000"
     borderopacity="0.25"
     inkscape:showpageshadow="2"
     inkscape:pageopacity="0.0"
     inkscape:pagecheckerboard="0"
     inkscape:deskcolor="#d1d1d1"
     inkscape:document-units="mm"
     inkscape:zoom="2.4085443"
     inkscape:cx="67.883327"
     inkscape:cy="141.78689"
     inkscape:window-width="1906"
     inkscape:window-height="1020"
     inkscape:window-x="0"
     inkscape:window-y="0"
     inkscape:window-maximized="1"
     inkscape:current-layer="layer1" />
  <defs
     id="defs1">
    <inkscape:perspective
       sodipodi:type="inkscape:persp3d"
       inkscape:vp_x="0 : 36.484857 : 1"
       inkscape:vp_y="0 : 1000 : 0"
       inkscape:vp_z="105.74999 : 36.484857 : 1"
       inkscape:persp3d-origin="52.874997 : 24.359857 : 1"
       id="perspective1" />
  </defs>
  <g
     inkscape:label="Layer 1"
     inkscape:groupmode="layer"
     id="layer1">
    <ellipse
       style="fill:none;fill-opacity:0.105341;stroke:#000000;stroke-width:0.25;stroke-linecap:square;stroke-dasharray:none;paint-order:stroke markers fill"
       id="path6-2-2-1"
       cx="31.014458"
       cy="54.359558"
       rx="16.95639"
       ry="2.9706309" />
    <g
       id="g10"
       transform="translate(-21.860609,8.8581625)"
       style="stroke-width:0.25;stroke-dasharray:none">
      <path
         d="m 40.760819,12.227161 a 16.95639,2.9706309 0 0 0 -4.842081,2.075842 16.95639,2.9706309 0 0 0 4.843115,2.076359 16.95639,2.9706309 0 0 0 12.112956,0.894519 16.95639,2.9706309 0 0 0 12.112955,-0.894519 16.95639,2.9706309 0 0 0 4.843632,-2.076359 16.95639,2.9706309 0 0 0 -4.842598,-2.075842 16.95639,2.9706309 0 0 1 -12.113989,0.895035 16.95639,2.9706309 0 0 1 -12.11399,-0.895035 z"
         style="fill:none;fill-opacity:0.105341;stroke:#000000;stroke-width:0.25;stroke-linecap:square;stroke-dasharray:none;paint-order:stroke markers fill"
         id="path7" />
      <path
         d="m 40.761853,16.379362 a 16.95639,2.9706309 0 0 0 -4.843115,2.075842 16.95639,2.9706309 0 0 0 4.843115,2.075843 16.95639,2.9706309 0 0 0 12.112956,0.894519 16.95639,2.9706309 0 0 0 12.112955,-0.894519 16.95639,2.9706309 0 0 0 4.843632,-2.075843 16.95639,2.9706309 0 0 0 -4.843632,-2.075842 16.95639,2.9706309 0 0 1 -12.112955,0.894519 16.95639,2.9706309 0 0 1 -12.112956,-0.894519 z"
         style="fill:none;fill-opacity:0.105341;stroke:#000000;stroke-width:0.25;stroke-linecap:square;stroke-dasharray:none;paint-order:stroke markers fill"
         id="path8" />
      <path
         d="m 64.988798,24.682731 a 16.95639,2.9706309 0 0 1 -12.113989,0.894519 16.95639,2.9706309 0 0 1 -12.11399,-0.894519 16.95639,2.9706309 0 0 0 -4.842081,2.075842 16.95639,2.9706309 0 0 0 16.956071,2.970878 16.95639,2.9706309 0 0 0 16.956587,-2.970878 16.95639,2.9706309 0 0 0 -4.842598,-2.075842 z"
         style="fill:none;fill-opacity:0.105341;stroke:#000000;stroke-width:0.25;stroke-linecap:square;stroke-dasharray:none;paint-order:stroke markers fill"
         id="path10" />
      <path
         d="m 40.761853,20.531047 a 16.95639,2.9706309 0 0 0 -4.843115,2.075842 16.95639,2.9706309 0 0 0 4.842081,2.075842 16.95639,2.9706309 0 0 0 12.11399,0.894519 16.95639,2.9706309 0 0 0 12.113989,-0.894519 16.95639,2.9706309 0 0 0 4.842598,-2.075842 16.95639,2.9706309 0 0 0 -4.843632,-2.075842 16.95639,2.9706309 0 0 1 -12.112955,0.894519 16.95639,2.9706309 0 0 1 -12.112956,-0.894519 z"
         style="fill:none;fill-opacity:0.105341;stroke:#000000;stroke-width:0.25;stroke-linecap:square;stroke-dasharray:none;paint-order:stroke markers fill"
         id="path9" />
      <path
         d="m 52.874809,7.180957 a 16.95639,2.9706309 0 0 0 -16.956071,2.970361 16.95639,2.9706309 0 0 0 4.842081,2.075843 16.95639,2.9706309 0 0 0 12.11399,0.895035 16.95639,2.9706309 0 0 0 12.113989,-0.895035 16.95639,2.9706309 0 0 0 4.842598,-2.075843 16.95639,2.9706309 0 0 0 -16.956587,-2.970361 z"
         style="fill:none;fill-opacity:0.105341;stroke:#000000;stroke-width:0.25;stroke-linecap:square;stroke-dasharray:none;paint-order:stroke markers fill"
         id="path6" />
    </g>
    <g
       inkscape:label=""
       transform="matrix(0.79926574,0,0,0.79926574,30.559376,10.459659)"
       id="g16">
      <g
         transform="matrix(0.352778,0,0,0.352778,-2.2516,-1.27)"
         id="g15">
        <g
           class="typst-text"
           transform="matrix(1,0,0,-1,3.93,6.75)"
           id="g12">
          <g
             id="g11">
            <path
               d="m 0,0 m 2.76,9.03 c 0.1949999,0 0.4949999,-0.1049995 0.8999999,-0.3299999 0.4050002,-0.2250004 0.7200002,-0.3299999 0.96,-0.3299999 0.3299999,0 0.6599998,0.1499996 0.9749999,0.4499998 0.1199999,0.1050005 0.3450003,0.3450002 0.6900001,0.6900005 l -0.33,0.2849998 -0.1950001,-0.21 c -0.3150001,-0.3150005 -0.645,-0.4800005 -1.0049996,-0.4800005 -0.1800003,0 -0.48,0.1050005 -0.9000001,0.3299999 C 3.435,9.6600001 3.1199999,9.7649996 2.895,9.7649996 2.5650001,9.7649996 2.2349999,9.615 1.92,9.3149998 1.8,9.2100003 1.575,8.9700005 1.2300001,8.6250002 L 1.56,8.3400004 C 1.8750001,8.7000001 2.2200001,9.03 2.76,9.03 Z"
               id="path11" />
          </g>
        </g>
        <g
           class="typst-text"
           transform="matrix(1,0,0,-1,0,10.245)"
           id="g14">
          <g
             id="g13">
            <path
               d="M 0,0 M 12.509999,10.245 C 12.255,10.245 11.37,10.2 11.115,10.2 c -0.300001,0 -1.3500009,0.045 -1.6500001,0.045 -0.2250004,0 -0.3450003,-0.12 -0.3450003,-0.3599997 0,-0.1350002 0.075,-0.21 0.2399998,-0.2250003 0.3599997,-0.045 0.54,-0.165 0.54,-0.3900004 0,-0.1349993 -0.09,-0.2999992 -0.2699995,-0.4949999 l -2.3400002,-2.52 c -0.435,1.02 -0.855,2.025 -1.29,3.0450006 0.015,0.03 0.03,0.059999 0.075,0.089999 0.1350002,0.1500006 0.3899998,0.2400007 0.75,0.2700005 0.2400002,0.03 0.3600001,0.1499996 0.3600001,0.3450002 0,0.165 -0.09,0.24 -0.2850003,0.24 C 6.5399998,10.245 5.3849996,10.2 5.025,10.2 c -0.3150001,0 -1.3500001,0.045 -1.6650002,0.045 -0.2249999,0 -0.3299999,-0.12 -0.3299999,-0.3599998 0,-0.1500006 0.135,-0.2250004 0.4049999,-0.2250004 0.6750002,0 0.8849998,0 1.065,-0.4350004 L 6.2399994,5.1300003 3.1199994,1.785 c -0.045,-0.045 -0.105,-0.1050001 -0.18,-0.15 C 2.3249996,0.98999994 1.6199996,0.62999998 0.79499936,0.58499998 c -0.255,-0.015 -0.38999996,-0.14999998 -0.38999996,-0.375 0.045,-0.13499999 0.06,-0.209999999999997 0.25499997,-0.209999999999997 0.255,0 1.14000003,0.045 1.39500013,0.045 0.3149998,0 1.3499999,-0.045 1.665,-0.045 0.2249999,0 0.3299997,0.119999999999997 0.3299997,0.359999979999997 0,0.13499999 -0.075,0.21000001 -0.2399998,0.225 -0.3600001,0.03 -0.54,0.16500002 -0.54,0.39 0,0.15000004 0.135,0.35999994 0.3899999,0.63000004 0.9299998,0.99 1.875,1.98 2.79,2.9849997 C 6.9599995,3.375 7.4849991,2.175 7.9799995,0.94500001 c -0.015,-0.03 -0.03,-0.06 -0.075,-0.10500002 -0.1349997,-0.13499999 -0.375,-0.20999998 -0.7349996,-0.255 -0.2250004,-0.03 -0.3450003,-0.14999998 -0.3450003,-0.34499997 0,-0.16499999 0.09,-0.239999999999998 0.2849998,-0.239999999999998 l 1.875,0.045 c 0.3150006,0 1.3649996,-0.045 1.6349996,-0.045 C 10.844999,2.0000002e-8 10.965,0.12000002 10.965,0.34500002 10.965,0.495 10.859999,0.57000002 10.635,0.585 10.17,0.585 9.8699997,0.6 9.7649992,0.66 9.6599993,0.71999999 9.5399994,0.9 9.4199996,1.2 L 7.5149994,5.745 c 1.02,1.0799999 1.7850003,1.8899999 2.2800002,2.4449997 0.3599994,0.375 0.5999994,0.6300001 0.7349994,0.7350006 0.555001,0.4649992 1.17,0.7049999 1.845001,0.7349996 0.314999,0.015 0.389999,0.09 0.389999,0.3750001 -0.045,0.135 -0.06,0.21 -0.255,0.21 z"
               id="path12" />
          </g>
        </g>
      </g>
    </g>
    <g
       inkscape:label=""
       transform="matrix(0.70554378,0,0,0.70554378,9.6125874,54.084902)"
       id="g20">
      <g
         transform="matrix(0.352778,0,0,0.352778,-2.2516,-1.8071)"
         id="g19">
        <g
           class="typst-text"
           transform="matrix(1,0,0,-1,0,10.245)"
           id="g18">
          <g
             id="g17">
            <path
               d="M 0,0 M 12.509999,10.245 C 12.255,10.245 11.37,10.2 11.115,10.2 c -0.300001,0 -1.3500009,0.045 -1.6500001,0.045 -0.2250004,0 -0.3450003,-0.12 -0.3450003,-0.3599997 0,-0.1350002 0.075,-0.21 0.2399998,-0.2250003 0.3599997,-0.045 0.54,-0.165 0.54,-0.3900004 0,-0.1349993 -0.09,-0.2999992 -0.2699995,-0.4949999 l -2.3400002,-2.52 c -0.435,1.02 -0.855,2.025 -1.29,3.0450006 0.015,0.03 0.03,0.059999 0.075,0.089999 0.1350002,0.1500006 0.3899998,0.2400007 0.75,0.2700005 0.2400002,0.03 0.3600001,0.1499996 0.3600001,0.3450002 0,0.165 -0.09,0.24 -0.2850003,0.24 C 6.5399998,10.245 5.3849996,10.2 5.025,10.2 c -0.3150001,0 -1.3500001,0.045 -1.6650002,0.045 -0.2249999,0 -0.3299999,-0.12 -0.3299999,-0.3599998 0,-0.1500006 0.135,-0.2250004 0.4049999,-0.2250004 0.6750002,0 0.8849998,0 1.065,-0.4350004 L 6.2399994,5.1300003 3.1199994,1.785 c -0.045,-0.045 -0.105,-0.1050001 -0.18,-0.15 C 2.3249996,0.98999994 1.6199996,0.62999998 0.79499936,0.58499998 c -0.255,-0.015 -0.38999996,-0.14999998 -0.38999996,-0.375 0.045,-0.13499999 0.06,-0.209999999999997 0.25499997,-0.209999999999997 0.255,0 1.14000003,0.045 1.39500013,0.045 0.3149998,0 1.3499999,-0.045 1.665,-0.045 0.2249999,0 0.3299997,0.119999999999997 0.3299997,0.359999979999997 0,0.13499999 -0.075,0.21000001 -0.2399998,0.225 -0.3600001,0.03 -0.54,0.16500002 -0.54,0.39 0,0.15000004 0.135,0.35999994 0.3899999,0.63000004 0.9299998,0.99 1.875,1.98 2.79,2.9849997 C 6.9599995,3.375 7.4849991,2.175 7.9799995,0.94500001 c -0.015,-0.03 -0.03,-0.06 -0.075,-0.10500002 -0.1349997,-0.13499999 -0.375,-0.20999998 -0.7349996,-0.255 -0.2250004,-0.03 -0.3450003,-0.14999998 -0.3450003,-0.34499997 0,-0.16499999 0.09,-0.239999999999998 0.2849998,-0.239999999999998 l 1.875,0.045 c 0.3150006,0 1.3649996,-0.045 1.6349996,-0.045 C 10.844999,2.0000002e-8 10.965,0.12000002 10.965,0.34500002 10.965,0.495 10.859999,0.57000002 10.635,0.585 10.17,0.585 9.8699997,0.6 9.7649992,0.66 9.6599993,0.71999999 9.5399994,0.9 9.4199996,1.2 L 7.5149994,5.745 c 1.02,1.0799999 1.7850003,1.8899999 2.2800002,2.4449997 0.3599994,0.375 0.5999994,0.6300001 0.7349994,0.7350006 0.555001,0.4649992 1.17,0.7049999 1.845001,0.7349996 0.314999,0.015 0.389999,0.09 0.389999,0.3750001 -0.045,0.135 -0.06,0.21 -0.255,0.21 z"
               id="path16" />
          </g>
        </g>
      </g>
    </g>
    <g
       inkscape:label=""
       transform="matrix(0.85199467,0,0,0.85199467,36.258295,44.69239)"
       id="g24">
      <g
         transform="matrix(0.352778,0,0,0.352778,-1.50019,-2.50296)"
         id="g23">
        <g
           class="typst-text"
           transform="matrix(1,0,0,-1,0,10.245)"
           id="g22">
          <g
             id="g21">
            <path
               d="m 0,0 m 7.8599997,6.4649997 h -4.95 c -0.615,0 -1.1549999,-0.2399998 -1.5899999,-0.7049999 -0.2099999,-0.2249999 -0.91499996,-1.185 -0.91499996,-1.3799996 0.06,-0.105 0.06,-0.1950002 0.23999998,-0.1950002 0.10500002,0 0.195,0.06 0.28500003,0.1950002 C 1.4099998,5.1149999 2.0249997,5.4899999 2.7599998,5.4899999 h 0.7649998 c -0.345,-1.3049998 -0.9749999,-2.9099998 -1.8749999,-4.8149996 -0.075,-0.18000004 -0.12,-0.31500003 -0.12,-0.39000002 0,-0.29999998 0.165,-0.45 0.48,-0.45 0.2849999,0 0.4949999,0.16499999 0.6299999,0.48 0.27,0.85499992 0.4650002,1.51499992 0.5700002,1.96499992 L 4.0349996,5.49 H 5.5799997 C 5.1749995,3.7050002 4.9649995,2.4600003 4.9649995,1.7550003 c 0,-0.735 0.1650004,-1.92000002 0.7200003,-1.92000002 0.315,0 0.6599998,0.29999998 0.6599998,0.615 0,0.075 -0.03,0.195 -0.09,0.34499997 -0.285,0.70500005 -0.4199997,1.49999985 -0.4199997,2.41499995 0,0.7049999 0.09,1.4699998 0.2549996,2.2799997 h 1.6350002 c 0.5250001,0 0.7800002,0.1800003 0.7800002,0.5550003 0,0.3449998 -0.2700005,0.4199996 -0.6450002,0.4199995 z"
               id="path20" />
          </g>
        </g>
      </g>
    </g>
    <g
       inkscape:label=""
       transform="matrix(0.95621018,0,0,0.95621018,30.970629,45.015315)"
       id="g28">
      <g
         transform="matrix(0.352778,0,0,0.352778,-1.27,-2.22779)"
         id="g27">
        <g
           class="typst-text"
           transform="matrix(1,0,0,-1,0,10.245)"
           id="g26">
          <g
             id="g25">
            <path
               d="m 0,0 m 6.9449997,0.57 c 0.165,0.045 0.2550001,0.16499996 0.2550001,0.34499997 C 7.1999998,1.155 7.0799999,1.275 6.8399997,1.275 c -0.045,0 -0.075,-0.015 -0.105,-0.03 C 5.6549998,0.93 4.7849998,0.27 4.1100002,-0.7199999 V 10.185 c 0,0.240001 -0.1200002,0.360001 -0.3600002,0.360001 -0.24,0 -0.3600001,-0.12 -0.3600001,-0.360001 V -0.7199999 c -0.675,0.98999995 -1.545,1.65 -2.62500001,1.9649999 -0.03,0.015 -0.06,0.03 -0.10500002,0.03 -0.23999998,0 -0.35999998,-0.12 -0.35999998,-0.36000003 0,-0.18 0.09,-0.29999995 0.25500003,-0.34499997 C 1.1999998,0.375 1.7549999,0.045 2.2349997,-0.42 c 0.675,-0.6750001 1.095,-1.365 1.26,-2.07 0.03,-0.135 0.1200001,-0.1949999 0.2550001,-0.1949999 0.135,0 0.2249999,0.06 0.2550001,0.1949999 0.165,0.705 0.5849996,1.395 1.2599998,2.07 0.48,0.46499997 1.0349998,0.79499996 1.68,0.99 z"
               id="path24" />
          </g>
        </g>
      </g>
    </g>
    <g
       inkscape:label=""
       transform="matrix(0.72425825,0,0,0.72425825,34.38367,54.432543)"
       id="g32">
      <g
         transform="matrix(0.352778,0,0,0.352778,-1.39435,-2.47385)"
         id="g31">
        <g
           class="typst-text"
           transform="matrix(1,0,0,-1,0,10.245)"
           id="g30">
          <g
             id="g29">
            <path
               d="M 0,0 M 7.9049997,5.595 C 7.9049997,6.2850001 7.23,6.6299998 6.48,6.6299998 5.835,6.6299998 5.3249998,6.285 4.9349999,5.595 4.6199998,6.2850001 4.0949998,6.6299998 3.3299999,6.6299998 2.595,6.6299998 1.995,6.285 1.515,5.6099998 1.11,5.0250002 0.9,4.5899998 0.9,4.305 c 0,-0.1349998 0.075,-0.21 0.225,-0.21 0.135,0 0.225,0.075 0.255,0.21 0.285,0.8699999 0.9149999,1.8899999 1.92,1.8899999 0.4949999,0 0.7349999,-0.3150001 0.7349999,-0.9299998 0,-0.3150001 -0.27,-1.4849999 -0.7949998,-3.495 -0.2550001,-1.005 -0.7050002,-1.5 -1.35,-1.5 -0.2100001,0 -0.405,0.045 -0.5700001,0.12000001 C 1.71,0.54000009 1.9050001,0.81000013 1.9050001,1.2 c 0,0.39 -0.1950001,0.5850001 -0.6,0.5850001 -0.49499998,0 -0.86999998,-0.42 -0.86999998,-0.91499997 0,-0.69 0.70499998,-1.035 1.43999998,-1.035 0.6299999,0 1.1399999,0.34499997 1.5449998,1.035 0.2850001,-0.69 0.8250001,-1.035 1.6050003,-1.035 0.7199998,0 1.3199997,0.34499997 1.7999997,1.02 0.4050002,0.58499997 0.6150003,1.01999997 0.6150003,1.30499977 0,0.135 -0.075,0.2100001 -0.2250004,0.2100001 C 7.08,2.37 7.0049998,2.295 6.9600002,2.1599999 6.7050001,1.305 6.0299999,0.27000003 5.055,0.27000003 c -0.4949999,0 -0.75,0.3 -0.75,0.91499997 0,0.195 0.075,0.615 0.2400002,1.29 L 5.055,4.5 c 0.2849998,1.125 0.75,1.6949997 1.4099998,1.6949997 0.21,0 0.4050002,-0.045 0.5700002,-0.1199999 C 6.6299998,5.94 6.435,5.6700001 6.435,5.2649999 6.435,4.875 6.6450001,4.6799998 7.0499998,4.6799998 c 0.4800001,0 0.855,0.435 0.8549999,0.9150002 z"
               id="path28" />
          </g>
        </g>
      </g>
    </g>
    <g
       inkscape:label=""
       transform="matrix(0.78924688,0,0,0.78924688,7.7367171,27.976155)"
       id="g44">
      <g
         transform="matrix(0.352778,0,0,0.352778,-5.2496,-2.30187)"
         id="g43">
        <g
           class="typst-group"
           id="g42">
          <g
             id="g41">
            <g
               class="typst-text"
               transform="matrix(1,0,0,-1,0,10.245)"
               id="g34">
              <g
                 id="g33">
                <path
                   d="m 0,0 m 4.29,-1.8299999 v 3.7199998 c 0,0.8549999 -0.5250001,1.485 -1.56,1.86 1.0349998,0.375 1.56,1.0050001 1.56,1.8599997 V 9.3299999 C 4.29,10.2 5.2199998,10.77 6.1349998,10.77 c 0.165,0 0.2400002,0.075 0.2400002,0.24 0,0.165 -0.075,0.24 -0.2400002,0.24 -0.6900001,0 -1.3199997,-0.150001 -1.875,-0.435 C 3.5549999,10.455 3.2100001,9.96 3.2100001,9.3299999 V 5.6099996 C 3.2100001,4.6649999 2.31,3.99 1.3650001,3.99 c -0.1650001,0 -0.24,-0.075 -0.24,-0.24 0,-0.165 0.075,-0.24 0.24,-0.24 0.96,0 1.845,-0.6900001 1.845,-1.62 v -3.7199998 c 0,-0.6300001 0.3449998,-1.125 1.0499997,-1.4849999 0.5550003,-0.2850001 1.185,-0.4350002 1.875,-0.4350002 0.165,0 0.2400002,0.075 0.2400002,0.24 0,0.1649999 -0.075,0.24 -0.2400002,0.24 -0.915,0 -1.8449998,0.5699999 -1.8449998,1.44 z"
                   id="path32" />
              </g>
            </g>
            <g
               class="typst-text"
               transform="matrix(1,0,0,-1,7.5,10.245)"
               id="g36">
              <g
                 id="g35">
                <path
                   d="m 0,0 m 10.065,10.2 c -0.2849999,0 -1.1849995,0.045 -1.4699993,0.045 -0.2250004,0 -0.3450003,-0.12 -0.3450003,-0.3450002 C 8.2500004,9.7500002 8.355,9.6750004 8.5500006,9.66 8.9700007,9.645 9.1799998,9.4950001 9.1799998,9.24 c 0,-0.1350003 -0.075,-0.3149996 -0.2099991,-0.54 l -4.4700003,-7.095 -0.99,7.68 c 0,0.2550001 0.3149998,0.375 0.9599998,0.375 0.3000002,0 0.435,0.1049995 0.435,0.36 0,0.15 -0.09,0.225 -0.27,0.225 -0.3299999,0 -1.4999998,-0.045 -1.8299999,-0.045 -0.3,0 -1.3199998,0.045 -1.6199999,0.045 -0.22499999,0 -0.345,-0.12 -0.345,-0.3450002 0,-0.165 0.14999998,-0.2399998 0.435,-0.2399998 0.255,0 0.4349999,-0.03 0.555,-0.06 0.24,-0.075 0.2250001,-0.1049996 0.2699999,-0.3899994 L 3.2700004,0.06000018 c 0.045,-0.255 0.165,-0.39 0.3599999,-0.39 0.195,0 0.3450001,0.10499999 0.4649999,0.29999998 L 9.4349999,8.4600002 C 9.7800002,9.0000001 10.11,9.3450004 10.44,9.4799997 10.665,9.5850002 10.95,9.6449996 11.28,9.66 c 0.165,0.015 0.24,0.1199998 0.255,0.345 0.015,0.165 -0.075,0.24 -0.255,0.24 -0.225,0 -0.99,-0.045 -1.215,-0.045 z"
                   id="path34" />
              </g>
            </g>
            <g
               class="typst-text"
               transform="matrix(1,0,0,-1,14.745,13.95)"
               id="g38">
              <g
                 id="g37">
                <path
                   d="m 0,0 m 2.5935,-0.105 c 0.819,0 1.6064999,0.2835 2.373,0.8505 0.1995001,-0.567 0.5565,-0.8505 1.092,-0.8505 0.4200001,0 1.0185003,0.36749998 1.0185003,0.7665 0,0.10500002 -0.0735,0.15750003 -0.2205005,0.15750003 -0.1154999,0 -0.1784997,-0.042 -0.2099995,-0.12599999 -0.1050001,-0.28350002 -0.2940002,-0.43050003 -0.5565,-0.43050003 -0.0525,0 -0.0945,0.0105 -0.1260004,0.0315 -0.1155,0.0945 -0.1784997,0.483 -0.1994996,1.18649999 C 6.048,1.7745001 6.2894999,2.1210001 6.5099999,2.52 c 0.3885002,0.7035001 0.5880003,1.1759999 0.5880003,1.4384999 0,0.1155 -0.0735,0.1785002 -0.2205,0.1785002 -0.1575003,-0.021 -0.2205,-0.063 -0.2520003,-0.2940001 C 6.4575001,3.2235001 6.1635,2.646 5.733,2.0895 V 2.247 C 5.712,2.6145001 5.7015,2.835 5.691,2.9189999 c -0.1575003,0.9765 -0.9029999,1.7114999 -2.016,1.7114999 -0.7665,0 -1.4489999,-0.2939997 -2.079,-0.882 C 0.96600017,3.1605 0.65100017,2.4884998 0.65100017,1.7325 0.65100017,0.65100004 1.4910002,-0.10499996 2.5935,-0.105 Z M 1.5960001,1.3755 c 0,0.7244999 0.3465,1.6800001 0.6719999,2.1105 0.3990002,0.5144997 0.8610001,0.7769999 1.3965001,0.7769999 0.6194999,0 0.9974997,-0.4725001 1.1130002,-1.4070001 0.0525,-0.7455001 0.084,-1.3125 0.0945,-1.6905 -0.7455,-0.5984999 -1.4910001,-0.90299989 -2.2470001,-0.90299989 -0.6720001,0 -1.029,0.44099998 -1.0290001,1.11300009 z"
                   id="path36" />
              </g>
            </g>
            <g
               class="typst-text"
               transform="matrix(1,0,0,-1,23.3865,10.245)"
               id="g40">
              <g
                 id="g39">
                <path
                   d="M 0,0 M 4.29,5.6099997 V 9.33 c 0,0.6300001 -0.345,1.125 -1.05,1.485 -0.5550001,0.285 -1.185,0.435 -1.875,0.435 -0.1650001,0 -0.24,-0.075 -0.24,-0.24 0,-0.165001 0.075,-0.24 0.24,-0.24 0.915,0 1.845,-0.57 1.845,-1.44 V 5.6099997 C 3.21,4.7550002 3.7349999,4.125 4.77,3.75 3.7349999,3.375 3.21,2.7449999 3.21,1.89 v -3.7199998 c 0,-0.8700001 -0.9300001,-1.44 -1.845,-1.44 -0.1650001,0 -0.24,-0.075 -0.24,-0.24 0,-0.1649999 0.075,-0.24 0.24,-0.24 0.6900001,0 1.3199999,0.1500001 1.875,0.4350002 0.7049999,0.3599999 1.05,0.8549998 1.05,1.4849999 v 3.7199998 c 0,0.9299999 0.8849997,1.62 1.8449998,1.62 0.165,0 0.2400002,0.075 0.2400002,0.24 0,0.165 -0.075,0.24 -0.2400002,0.24 -0.96,0 -1.8449998,0.6899998 -1.8449998,1.6199996 z"
                   id="path38" />
              </g>
            </g>
          </g>
        </g>
      </g>
    </g>
  </g>
</svg>
